<svg xmlns="http://www.w3.org/2000/svg" viewBox="0 0 630 630">
<rect width="630" height="630" fill="#f7df1e"/>
<path d="m361.85 482.53c12.43 24.31 32.77 39.56 61.02 39.56 26 0 42.94-13 42.94-63.85v-223.72h58.76v223.72c0 82.49-48.59 116.39-102.83 116.39-49.16 0-82.5-23.73-99.46-57.06z"/>
<path d="m223.82 459.9c14.69 25.43 38.42 41.25 64.41 41.25 24.86 0 40.12-11.3 40.12-27.12 0-20.34-16.39-28.82-44.07-40.68l-15.26-6.22c-45.2-19.21-75.14-43.5-75.14-93.79 0-48.03 37.86-83.06 90.96-83.06 43.5 0 71.36 17.51 86.61 46.89l-46.33 28.25c-9.6-18.08-25.43-27.69-41.24-27.69-18.65 0-29.38 9.04-29.38 22.04 0 14.69 9.61 20.9 33.34 31.08l15.25 6.22c54.81 23.16 85.94 45.76 85.94 98.31 0 57.63-44.07 92.09-101.13 92.09-58.76 0-96.62-28.82-114.7-65.54z"/>
</svg>
