<svg xmlns="http://www.w3.org/2000/svg" viewBox="0 0 24 24" fill="none" stroke="currentColor" stroke-width="2" stroke-linecap="round" stroke-linejoin="round">
  <defs>
    <linearGradient id="nnGrad" x1="0%" y1="0%" x2="100%" y2="100%">
      <stop offset="0%" stop-color="#38bdf8" />
      <stop offset="100%" stop-color="#818cf8" />
    </linearGradient>
  </defs>
  <circle cx="5" cy="6" r="1.5" fill="#ffffff" />
  <circle cx="5" cy="12" r="1.5" fill="#ffffff" />
  <circle cx="5" cy="18" r="1.5" fill="#ffffff" />
  <circle cx="12" cy="5" r="1.5" fill="url(#nnGrad)" />
  <circle cx="12" cy="10" r="1.5" fill="url(#nnGrad)" />
  <circle cx="12" cy="15" r="1.5" fill="url(#nnGrad)" />
  <circle cx="12" cy="20" r="1.5" fill="url(#nnGrad)" />
  <circle cx="19" cy="9" r="1.5" fill="#ffffff" />
  <circle cx="19" cy="15" r="1.5" fill="#ffffff" />
  <line x1="5" y1="6" x2="12" y2="5" stroke="url(#nnGrad)" stroke-width="1" opacity="0.4" />
  <line x1="5" y1="6" x2="12" y2="10" stroke="url(#nnGrad)" stroke-width="1" opacity="0.4" />
  <line x1="5" y1="6" x2="12" y2="15" stroke="url(#nnGrad)" stroke-width="1" opacity="0.4" />
  <line x1="5" y1="12" x2="12" y2="5" stroke="url(#nnGrad)" stroke-width="1" opacity="0.4" />
  <line x1="5" y1="12" x2="12" y2="10" stroke="url(#nnGrad)" stroke-width="1" opacity="0.4" />
  <line x1="5" y1="12" x2="12" y2="15" stroke="url(#nnGrad)" stroke-width="1" opacity="0.4" />
  <line x1="5" y1="12" x2="12" y2="20" stroke="url(#nnGrad)" stroke-width="1" opacity="0.4" />
  <line x1="5" y1="18" x2="12" y2="10" stroke="url(#nnGrad)" stroke-width="1" opacity="0.4" />
  <line x1="5" y1="18" x2="12" y2="15" stroke="url(#nnGrad)" stroke-width="1" opacity="0.4" />
  <line x1="5" y1="18" x2="12" y2="20" stroke="url(#nnGrad)" stroke-width="1" opacity="0.4" />
  <line x1="12" y1="5" x2="19" y2="9" stroke="url(#nnGrad)" stroke-width="1" opacity="0.4" />
  <line x1="12" y1="10" x2="19" y2="9" stroke="url(#nnGrad)" stroke-width="1" opacity="0.4" />
  <line x1="12" y1="10" x2="19" y2="15" stroke="url(#nnGrad)" stroke-width="1" opacity="0.4" />
  <line x1="12" y1="15" x2="19" y2="9" stroke="url(#nnGrad)" stroke-width="1" opacity="0.4" />
  <line x1="12" y1="15" x2="19" y2="15" stroke="url(#nnGrad)" stroke-width="1" opacity="0.4" />
  <line x1="12" y1="20" x2="19" y2="15" stroke="url(#nnGrad)" stroke-width="1" opacity="0.4" />
</svg>
